<svg width="174" height="26" viewBox="0 0 174 26" fill="none" xmlns="http://www.w3.org/2000/svg">
<path d="M13.1345 7.12927C11.4698 5.77187 10.0463 5.19235 8.61891 5.19235C7.1915 5.19235 6.14136 5.93911 6.14136 7.16038C6.14136 10.9642 17.0044 10.2836 17.0044 18.1246C17.0044 22.0607 13.2706 25.4561 8.45166 25.4561C5.49961 25.4561 2.85093 24.4371 0 22.1307L1.01902 20.8083C3.53157 22.8113 5.83799 23.7292 8.45166 23.7292C12.2866 23.7292 15.0714 21.1505 15.0714 18.1285C15.0714 11.5748 4.20833 12.3916 4.20833 7.16427C4.20833 5.19624 6.04024 3.46545 8.6228 3.46545C10.5908 3.46545 12.3916 4.17721 14.2585 5.67074L13.1384 7.12927H13.1345ZM15.3087 4.31334C13.0684 2.51255 10.9642 1.73467 8.6228 1.73467C5.06011 1.73467 2.2753 4.24722 2.2753 7.16427C2.2753 13.7179 13.1384 12.9011 13.1384 18.1285C13.1384 20.1976 11.3065 21.9984 8.45555 21.9984C6.21526 21.9984 4.24722 21.1155 2.10805 19.4198L3.2282 17.9924C5.16512 19.587 6.79089 20.2677 8.45555 20.2677C10.1202 20.2677 11.2054 19.4548 11.2054 18.1285C11.1976 14.3247 0.334488 15.0053 0.334488 7.16427C0.334488 3.32544 4.06831 0 8.61891 0C11.3026 0 13.7451 0.882893 16.3238 2.98706L15.3048 4.30945L15.3087 4.31334Z" fill="#8DE9FE"/>
<path d="M68.0294 0.680634V15.3787C68.0294 21.3178 64.1595 25.46 58.796 25.46C53.4325 25.46 49.5626 21.3178 49.5626 15.3787V0.680634H51.3945V15.3787C51.3945 20.2326 54.4826 23.6281 58.796 23.6281C63.1093 23.6281 66.1975 20.2326 66.1975 15.3787V0.680634H68.0294ZM64.3617 0.680634V15.3787C64.3617 19.2486 62.0864 21.7962 58.796 21.7962C55.5056 21.7962 53.2303 19.2486 53.2303 15.3787V0.680634H55.0622V15.3787C55.0622 18.1946 56.5207 19.9604 58.796 19.9604C61.0713 19.9604 62.5298 18.1946 62.5298 15.3787V0.680634H64.3617Z" fill="#8DE9FE"/>
<path d="M74.3458 24.7794V0.338379H74.6531L87.8576 12.695V0.680646H89.6895V16.9383L76.1777 4.27834V24.7794H74.3458ZM78.0135 24.7794V8.55668L91.5253 21.2206V0.680646H93.3572V25.1216H93.0499L79.8454 12.8V24.7832H78.0135V24.7794Z" fill="#8DE9FE"/>
<path d="M100.148 0.680634H106.293C113.559 0.680634 119.023 5.46848 119.023 12.73C119.023 19.9915 113.559 24.7793 106.293 24.7793H100.148V0.680634ZM106.293 23.0525C112.505 23.0525 117.191 18.9452 117.191 12.7339C117.191 6.52251 112.509 2.41531 106.293 2.41531H101.984V23.0486H106.293V23.0525ZM106.293 4.1422C111.486 4.1422 115.356 7.53764 115.356 12.73C115.356 17.9223 111.486 21.3178 106.293 21.3178H103.816V4.1422H106.293ZM105.648 19.587H106.293C110.436 19.587 113.524 16.8722 113.524 12.73C113.524 8.58778 110.436 5.87298 106.293 5.87298H105.648V19.587Z" fill="#8DE9FE"/>
<path d="M150.356 0.680634V15.3787C150.356 21.3178 146.486 25.46 141.123 25.46C135.759 25.46 131.889 21.3178 131.889 15.3787V0.680634H137.389V15.3787C137.389 18.1946 138.848 19.9604 141.123 19.9604C143.398 19.9604 144.857 18.1946 144.857 15.3787V0.680634H150.356Z" fill="#8DE9FE"/>
<path d="M156.673 24.7793V0.680634H163.359C168.858 0.680634 173.374 3.83882 173.374 9.33843C173.374 14.838 168.858 17.9962 163.359 17.9962H162.172V24.7871H156.673V24.7793ZM162.172 5.56572V13.1034H163.359C165.7 13.1034 167.567 11.676 167.567 9.33454C167.567 6.99313 165.7 5.56572 163.359 5.56572H162.172Z" fill="#8DE9FE"/>
<path d="M27.8909 2.21307L37.8672 25.46L26.7902 20.8822L21.4851 23.173L18.1908 15.3942L23.4959 13.2862L27.8909 2.21307Z" fill="#8DE9FE"/>
<path d="M41.5233 13.4262C41.5233 9.24122 38.1162 5.83411 33.9312 5.83411C33.4994 5.83411 33.0794 5.87689 32.6671 5.9469L34.0051 9.12065C36.3465 9.15954 38.2406 11.0731 38.2406 13.4223C38.2406 14.5658 37.7895 15.6043 37.0582 16.3744L38.3962 19.5481C40.2903 18.1674 41.5272 15.9388 41.5272 13.4184L41.5233 13.4262Z" fill="#8DE9FE"/>
<path d="M47.1629 13.4262C47.1629 6.12968 41.2277 0.194458 33.9312 0.194458C32.7216 0.194458 31.5548 0.361702 30.4424 0.665075L31.7337 3.72992C32.4415 3.57046 33.1766 3.481 33.9351 3.481C39.4191 3.481 43.8803 7.94214 43.8803 13.4262C43.8803 16.9228 42.0639 19.9993 39.3297 21.7728L40.6209 24.8377C44.5337 22.5352 47.1668 18.284 47.1668 13.4262H47.1629Z" fill="#8DE9FE"/>
</svg>
